# xmcd CD database file
#
# Track frame offsets:
#	150
#	13709
#	27412
#	41396
#	61995
#	77852
#	94618
#	108283
#	124781
#	139395
#	153879
#	170051
#	194811
#	210561
#	232025
#	249643
#
# Disc length: 3522 seconds
#
# Revision: 1
# Processed by: cddbd v1.5.2PL0 Copyright (c) Steve Scherf et al.
# Submitted via: CDex 1.51
#
DISCID=de0dc010
DTITLE=Various Artist - Party Box CD3
DYEAR=2008
DGENRE=Country
TTITLE0=TIM TOUPET/Hello Again
TTITLE1=BRITTSCHE/1, 2, 3 Oberkörper frei
TTITLE2=PETER WACKEL and SCHNITTE/Schön ist es auf der Welt zu sein
TTITLE3=MARKUS BECKER/Zehn kleine Jägermeister
TTITLE4=SOMMER and SOMMER/Wir sind alle über 40
TTITLE5=GREAT JOKERS/Uno, Dos, ...  (sha la la la la)
TTITLE6=DJ RALLI/Kaufen Brille (Malle-Mix)
TTITLE7=WELLKAMM/Du hast die Haare schön
TTITLE8=PFLEGER KLAUS/Die Krankenschwester (Ein schneeweißes Luder)
TTITLE9=ROBERTO FALCONE/Sag mir Quando, sag mir wann
TTITLE10=MARIO FELSEN/Ein Stern, der deinen Namen trägt
TTITLE11=DIE PARTYGEIER/Mit Alle auf Malle
TTITLE12=PARTYGEIER/Wahnsinn Hölle-Hölle-Hölle
TTITLE13=MARC HENDRIC/SOS an Bord - Dance Track
TTITLE14=PETER WACKELLADIOO (Arena-Hitmix)
TTITLE15=DIE PARTYGEIER/Eisgekühlter Bommerlunder
EXTD=YEAR: 2008
EXTT0=
EXTT1=
EXTT2=
EXTT3=
EXTT4=
EXTT5=
EXTT6=
EXTT7=
EXTT8=
EXTT9=
EXTT10=
EXTT11=
EXTT12=
EXTT13=
EXTT14=
EXTT15=
PLAYORDER=
